HIERARCHY
ROOT Hips
{
 OFFSET 0.000000 0.000000 0.000000
 CHANNELS 6 Xposition Yposition Zposition Yrotation Xrotation Zrotation
 JOINT Chest
 {
  OFFSET 0.000000 9.585900 0.002600
  CHANNELS 3 Yrotation Xrotation Zrotation
  JOINT Chest2
  {
   OFFSET 0.000000 9.601200 -0.005300
   CHANNELS 3 Yrotation Xrotation Zrotation
   JOINT Chest3
   {
    OFFSET 0.000000 9.561800 0.000000
    CHANNELS 3 Yrotation Xrotation Zrotation
    JOINT Chest4
    {
     OFFSET 0.000000 9.552100 0.000000
     CHANNELS 3 Yrotation Xrotation Zrotation
     JOINT Neck
     {
      OFFSET 0.000000 14.453000 0.000000
      CHANNELS 3 Yrotation Xrotation Zrotation
      JOINT Head
      {
       OFFSET 0.000000 8.936500 -0.011300
       CHANNELS 3 Yrotation Xrotation Zrotation
       End Site
       {
        OFFSET 0.000000 17.073600 -0.006000
       }
      }
     }
     JOINT RightCollar
     {
      OFFSET -2.921100 9.558500 0.000000
      CHANNELS 3 Yrotation Xrotation Zrotation
      JOINT RightShoulder
      {
       OFFSET -13.519700 0.000000 0.000000
       CHANNELS 3 Yrotation Xrotation Zrotation
       JOINT RightElbow
       {
        OFFSET 0.000000 -29.696600 0.000000
        CHANNELS 3 Yrotation Xrotation Zrotation
        JOINT RightWrist
        {
         OFFSET 0.000000 -24.004700 0.000000
         CHANNELS 3 Yrotation Xrotation Zrotation
         End Site
         {
          OFFSET 0.000000 -17.728500 0.000000
         }
        }
       }
      }
     }
     JOINT LeftCollar
     {
      OFFSET 2.921100 9.558500 0.000000
      CHANNELS 3 Yrotation Xrotation Zrotation
      JOINT LeftShoulder
      {
       OFFSET 13.519700 0.000000 0.000000
       CHANNELS 3 Yrotation Xrotation Zrotation
       JOINT LeftElbow
       {
        OFFSET 0.000000 -29.696600 0.000000
        CHANNELS 3 Yrotation Xrotation Zrotation
        JOINT LeftWrist
        {
         OFFSET 0.000000 -24.004700 0.000000
         CHANNELS 3 Yrotation Xrotation Zrotation
         End Site
         {
          OFFSET 0.000000 -17.728500 0.000000
         }
        }
       }
      }
     }
    }
   }
  }
 }
 JOINT RightHip
 {
  OFFSET -7.771700 -0.012900 -0.001300
  CHANNELS 3 Yrotation Xrotation Zrotation
  JOINT RightKnee
  {
   OFFSET 0.000000 -40.869800 0.001200
   CHANNELS 3 Yrotation Xrotation Zrotation
   JOINT RightAnkle
   {
    OFFSET 0.000000 -39.717900 0.002100
    CHANNELS 3 Yrotation Xrotation Zrotation
    JOINT RightToe
    {
     OFFSET 0.000000 -4.965400 11.033500
     CHANNELS 3 Yrotation Xrotation Zrotation
     End Site
     {
      OFFSET 0.000000 -1.423100 5.872300
     }
    }
   }
  }
 }
 JOINT LeftHip
 {
  OFFSET 7.771700 -0.012900 -0.001300
  CHANNELS 3 Yrotation Xrotation Zrotation
  JOINT LeftKnee
  {
   OFFSET 0.000000 -40.869800 0.001200
   CHANNELS 3 Yrotation Xrotation Zrotation
   JOINT LeftAnkle
   {
    OFFSET 0.000000 -39.717900 0.002100
    CHANNELS 3 Yrotation Xrotation Zrotation
    JOINT LeftToe
    {
     OFFSET 0.000000 -4.965400 11.033500
     CHANNELS 3 Yrotation Xrotation Zrotation
     End Site
     {
      OFFSET 0.000000 -1.423100 5.872300
     }
    }
   }
  }
 }
}
MOTION
Frames: 11
Frame Time: 0.008333
0.000000 85.388000 0.000000 0.000000 -5.767877 0.000000 0.000000 11.653817 0.000000 0.000000 -5.885947 0.000000 0.000000 -0.000000 0.000000 0.000000 -0.000000 0.000000 0.000000 12.528835 0.000000 0.000000 0.711642 0.000000 0.000000 -0.000000 0.000000 0.000000 0.000000 -90.000000 0.000000 -2.309062 0.000000 0.000000 2.309062 0.000000 0.000000 -0.000000 0.000000 0.000000 -0.000000 90.000000 0.000000 -2.309062 0.000000 0.000000 2.309062 0.000000 0.000000 8.520406 0.000000 0.000000 1.905762 0.000000 -0.000000 -4.658285 0.000000 0.000000 -0.000000 0.000000 0.000000 8.520406 0.000000 0.000000 1.905762 0.000000 -0.000000 -4.658285 0.000000 0.000000 -0.000000 0.000000
-52.207616 54.923003 45.713418 -179.040269 -28.360385 -9.956100 0.222721 15.013421 5.861856 0.026215 8.651219 2.627821 0.105765 10.887020 3.315439 0.028789 8.675204 2.620295 7.082440 21.363306 -2.872424 8.439893 -2.533755 -4.789666 2.018682 6.357447 -1.958308 -17.505220 -14.380377 3.469645 110.870405 -79.964834 -94.121175 11.179878 -12.279089 -19.804021 -9.853075 3.837036 -3.386342 5.393985 -6.942298 0.156426 -103.656743 -70.327046 110.784730 16.145976 -29.831961 8.949697 -16.552012 -38.269416 4.016358 41.157305 88.754400 37.803213 2.452705 -19.550223 2.259495 -0.039816 0.483883 0.003406 -14.376820 -49.686983 14.783629 174.043479 79.030466 168.886310 -1.517568 -17.715544 2.765439 -0.436586 -1.694631 -0.212374
-52.215360 54.922076 45.717645 -179.046889 -28.456091 -9.958110 0.236723 15.144329 5.942784 0.033776 8.723387 2.624749 0.110827 10.952183 3.327678 0.034813 8.745195 2.640794 7.177067 21.439397 -2.970755 8.574515 -2.428823 -4.923119 1.999868 6.491804 -1.917160 -17.358549 -14.771075 3.300605 110.149965 -80.109571 -93.401144 11.193442 -12.208740 -19.721829 -9.859117 3.859097 -3.439343 5.236634 -7.230295 0.261710 -103.270320 -70.560179 110.350844 16.051581 -29.448060 8.801752 -16.441687 -38.187406 3.985784 39.411423 88.772119 36.039209 2.562073 -19.536676 2.284309 -0.035814 0.479890 0.005283 -14.322957 -49.606005 14.719324 173.927625 79.022743 168.790451 -1.513044 -17.691532 2.764137 -0.435385 -1.713613 -0.217141
-52.224334 54.921924 45.724768 -179.052878 -28.561407 -9.962106 0.255421 15.258033 5.981392 0.039869 8.816227 2.670971 0.115592 11.017812 3.337008 0.040287 8.815119 2.660893 7.238049 21.503718 -3.064688 8.669637 -2.340920 -5.043376 1.991687 6.630087 -1.878623 -17.197098 -15.136366 3.120999 109.562554 -80.238211 -92.842492 11.226718 -12.160046 -19.642323 -9.856105 3.886676 -3.506650 5.099125 -7.532205 0.375690 -102.865712 -70.751217 109.880257 15.956479 -29.071618 8.618544 -16.346569 -38.095075 3.964646 37.843428 88.785678 34.477405 2.526382 -19.518302 2.322929 -0.039543 0.478525 0.005836 -14.237942 -49.522953 14.627087 173.726320 79.013304 168.628209 -1.501673 -17.659089 2.764325 -0.443355 -1.738688 -0.223913
-52.231219 54.921369 45.739282 -179.070983 -28.646142 -9.980393 0.290778 15.341922 6.020241 0.044712 8.884555 2.719310 0.123661 11.101629 3.361702 0.045937 8.882166 2.680314 7.270615 21.559675 -3.146341 8.729024 -2.266298 -5.142814 1.994951 6.774356 -1.840867 -17.042793 -15.458255 2.942136 109.113049 -80.335486 -92.435790 11.271358 -12.123206 -19.568421 -9.852460 3.929539 -3.578520 4.974201 -7.838764 0.488623 -102.444616 -70.898411 109.390549 15.870214 -28.727044 8.399904 -16.274867 -38.019812 3.978068 36.075024 88.788232 32.727513 2.452202 -19.488631 2.361407 -0.070184 0.479611 0.001952 -14.210688 -49.447418 14.617843 173.622097 79.019650 168.527068 -1.494151 -17.627760 2.783870 -0.451770 -1.751409 -0.234730
-52.240783 54.926873 45.748542 -179.076083 -28.787752 -9.996402 0.317584 15.485772 6.078170 0.048730 8.912788 2.707169 0.143287 11.205273 3.410189 0.053059 8.944300 2.698637 7.277392 21.610215 -3.209836 8.754062 -2.201722 -5.215523 2.001469 6.921143 -1.803895 -16.917136 -15.722792 2.777044 108.790718 -80.404000 -92.153018 11.319712 -12.093629 -19.497523 -9.858179 3.991585 -3.645869 4.894387 -8.126455 0.541397 -102.068305 -70.965591 108.916433 15.791726 -28.417196 8.153681 -16.197156 -37.882338 3.950100 34.851479 88.775914 31.501094 2.461831 -19.461910 2.372513 -0.035447 0.478399 0.006443 -14.129796 -49.316875 14.548404 173.491617 79.022114 168.417625 -1.488535 -17.596885 2.791926 -0.458336 -1.774169 -0.236160
-52.252448 54.932988 45.762948 -179.071633 -28.910362 -10.010778 0.333828 15.595321 6.148426 0.046123 8.954393 2.674896 0.170502 11.292732 3.452005 0.062338 9.000287 2.715435 7.261688 21.657745 -3.253439 8.748230 -2.144124 -5.260354 2.004067 7.062647 -1.770763 -16.831526 -15.919781 2.639533 108.583657 -80.454219 -91.972986 11.364948 -12.065429 -19.417174 -9.876338 4.071113 -3.704622 4.817906 -8.403709 0.591402 -101.699285 -71.022820 108.459641 15.710351 -28.135893 7.895758 -16.152153 -37.761793 3.925795 33.810891 88.748653 30.415892 2.572785 -19.434619 2.371041 -0.042055 0.478809 0.011982 -14.065074 -49.203577 14.477480 173.356302 79.035798 168.305763 -1.493255 -17.562137 2.791561 -0.449614 -1.789176 -0.234038
-52.266012 54.938905 45.783788 -179.073028 -29.002598 -10.017603 0.353837 15.683015 6.164880 0.062156 9.001877 2.715855 0.185063 11.347563 3.464640 0.073725 9.050083 2.730942 7.228088 21.703601 -3.277924 8.716936 -2.091465 -5.279357 2.001075 7.191071 -1.746105 -16.786608 -16.047193 2.541472 108.456810 -80.495067 -91.854076 11.401103 -12.030196 -19.326848 -9.909358 4.161340 -3.755368 4.708678 -8.665286 0.673749 -101.309406 -71.101168 108.030344 15.619749 -27.875453 7.646569 -16.080752 -37.676796 3.918849 31.534601 88.742969 28.127007 2.520875 -19.398518 2.425307 -0.023104 0.480325 0.011946 -14.013392 -49.118825 14.417201 173.260308 79.062021 168.226830 -1.495845 -17.530602 2.790798 -0.432327 -1.791655 -0.234571
-52.288151 54.941473 45.813795 -179.037054 -29.030708 -9.997769 0.317981 15.704737 6.152914 0.089748 9.072624 2.755318 0.185271 11.374303 3.452243 0.086934 9.094678 2.744804 7.181281 21.746909 -3.283286 8.665412 -2.044423 -5.273715 1.990553 7.301818 -1.729252 -16.772444 -16.116081 2.485371 108.347408 -80.538807 -91.734385 11.427169 -11.980468 -19.241110 -9.955279 4.253382 -3.795466 4.575843 -8.859366 0.764432 -101.016693 -71.171133 107.743310 15.523721 -27.628972 7.414422 -16.038173 -37.666502 3.879277 29.364136 88.735969 25.949860 2.398627 -19.365266 2.496699 0.036647 0.487129 0.013959 -13.974981 -49.097729 14.305956 173.211309 79.114296 168.201862 -1.526955 -17.520669 2.771631 -0.372288 -1.748333 -0.208295
-52.305349 54.949687 45.840677 -179.038394 -29.093381 -9.999021 0.334706 15.750215 6.176658 0.108971 9.124215 2.771719 0.196484 11.417624 3.459154 0.100859 9.135358 2.756363 7.127033 21.784257 -3.271604 8.600898 -2.006325 -5.247100 1.969927 7.389783 -1.718611 -16.770229 -16.140595 2.465004 108.209430 -80.596552 -91.579182 11.444559 -11.907243 -19.176389 -10.006490 4.339755 -3.822493 4.498941 -9.033162 0.801660 -100.746331 -71.201123 107.433517 15.435534 -27.387446 7.195465 -15.968138 -37.610307 3.885109 25.918454 88.722273 22.482462 2.333881 -19.321140 2.577015 -0.005241 0.487677 0.008650 -13.939438 -49.037503 14.256092 173.155359 79.157132 168.154393 -1.533994 -17.486451 2.772341 -0.353481 -1.741678 -0.199802
-52.323069 54.959379 45.869010 -179.035078 -29.145158 -10.008481 0.352650 15.784822 6.216848 0.104671 9.154783 2.755056 0.223979 11.482537 3.481744 0.114090 9.172735 2.766151 7.070714 21.812647 -3.247810 8.530818 -1.979839 -5.206379 1.940520 7.454972 -1.717506 -16.766781 -16.135041 2.476773 108.034550 -80.671079 -91.389046 11.453513 -11.802719 -19.142406 -10.057184 4.414121 -3.839627 4.476249 -9.218830 0.804425 -100.439026 -71.222215 107.042359 15.349762 -27.134597 6.997574 -15.942259 -37.558911 3.895683 23.442038 88.691583 19.975479 2.317644 -19.273646 2.628830 -0.066006 0.486681 0.000963 -13.933541 -48.994556 14.217593 173.069843 79.192241 168.074225 -1.509075 -17.420269 2.764220 -0.365688 -1.767004 -0.189432
